<?xml version="1.0" encoding="utf-8"?>
<!-- Generator: Adobe Illustrator 12.0.0, SVG Export Plug-In . SVG Version: 6.00 Build 51448)  -->
<!DOCTYPE svg PUBLIC "-//W3C//DTD SVG 1.1//EN" "http://www.w3.org/Graphics/SVG/1.1/DTD/svg11.dtd" [
	<!ENTITY ns_svg "http://www.w3.org/2000/svg">
	<!ENTITY ns_xlink "http://www.w3.org/1999/xlink">
]>
<svg  version="1.1" xmlns="&ns_svg;" xmlns:xlink="&ns_xlink;" width="169.918" height="57.401" viewBox="0 0 169.918 57.401"
	 overflow="visible" enable-background="new 0 0 169.918 57.401" xml:space="preserve">
<g id="レイヤー_1" display="none">
	<rect x="1.701" y="1.701" display="inline" fill="#011603" stroke="#000000" stroke-width="3.4016" width="166.517" height="54"/>
</g>
<g id="レイヤー_3">
	<g id="XMLID_4_">
		<g>
			<path fill="#FFFFFF" stroke="#000000" stroke-width="0.651" d="M163.748,30.179l3.941,4.428c0.75,1.032,0.624,1.696-0.374,1.993
				H157.18c-0.375,1.03-0.937,2.285-1.688,3.762c-0.375,0.884-1,1.989-1.875,3.317c2.127,0.442,3.879,0.96,5.253,1.55
				c2.503,1.032,4.127,2.066,4.878,3.1c0.751,1.179,0.938,2.361,0.563,3.538c-0.75,2.216-2.313,2.437-4.688,0.666
				c-1.002-0.738-1.813-1.329-2.441-1.77c-1.5-1.035-3.627-2.213-6.379-3.541c-1.25,1.033-2.563,1.917-3.938,2.654
				c-2.126,1.179-4.565,2.065-7.316,2.656c-4.129,0.885-8.007,1.328-11.635,1.328c-1.625-0.295-1.688-0.813-0.188-1.55
				c0.375,0,0.814,0,1.313,0c4.627-0.59,8.631-1.698,12.008-3.319c1.751-0.884,3.438-2.064,5.066-3.542
				c-2.502-0.735-4.815-1.328-6.941-1.771c-0.375,0.593-0.688,1.108-0.938,1.55c-0.25,0.589-0.625,0.886-1.127,0.886
				c-1.001,0.295-2.125,0-3.377-0.886c-0.5-0.441-0.5-1.032,0-1.771c1.752-2.803,3.126-5.091,4.128-6.858h-12.57l-0.751-1.55h14.073
				c1.374-2.36,2.375-4.279,3.001-5.758h-2.627v1.552c0,1.032-0.813,1.623-2.439,1.771c-0.376,0-0.812,0-1.315,0
				c-0.749,0-1.121-0.295-1.121-0.886V12.472l5.252,2.656h13.885l1.313-2.656l4.502,4.205c0.502,0.443,0.438,1.106-0.188,1.992
				l-0.188,0.221v11.512c0,0.59-0.813,1.032-2.438,1.328c-1.627,0.146-2.439-0.073-2.439-0.663v-1.774H146.3l0.563,0.442
				c0.625,0.594,0.499,1.184-0.375,1.774l-1.126,0.663l-1.503,2.878h16.513L163.748,30.179z M132.229,10.922
				c0.248,1.919,0.123,3.616-0.376,5.091c-0.625,2.066-1.627,3.246-3.004,3.542c-0.75,0.147-1.438,0-2.062-0.442
				c-0.627-0.443-1.002-0.96-1.126-1.55c-0.249-1.328,0.188-2.581,1.313-3.762l1.125-1.107c0.875-0.886,1.502-2.065,1.878-3.541
				c0.375-2.656,0.874-3.025,1.5-1.106c0.125,0.443,0.251,0.885,0.376,1.328h11.444V2.292l5.816,0.885
				c1.375,0.59,1.5,1.328,0.376,2.213l-0.938,0.442v3.541h12.945l1.688-2.877l4.316,4.869c1.501,1.919,1.313,2.951-0.563,3.099
				l-2.254,0.221l-2.438,2.656c-1.252,1.624-2.003,1.845-2.252,0.664c0.376-1.476,0.875-3.836,1.501-7.083H132.229z M138.982,16.677
				v4.648h14.822v-4.648H138.982z M138.982,27.742h14.822v-4.868h-14.822V27.742z M143.109,36.6c-1,1.768-2.001,3.539-3.002,5.31
				c1.001,0.148,2.689,0.296,5.067,0.441c0.874,0,1.938,0.148,3.189,0.441c0.999-1.327,2.001-3.392,3.002-6.192H143.109z"/>
		</g>
		<path fill="#FFFFFF" stroke="#000000" stroke-width="1.274" d="M57.907,17.142c3.801-5.722,15.583-3.027,12.5,6.819
			c-1.727,0-3.464,0-5.192,0c-0.594-0.936-1.538-5.062-2.59-1.946c-0.03,3.252,1.893,3.078,3.063,3.896
			c1.311,0.915,2.48,1.132,3.068,3.417c2.463,14.283-17.492,18.047-14.849,2.911c1.722,0,3.454,0,5.18,0
			c1.01,0.195,0.509,3.483,1.887,2.918c0.489-0.289,0.801-0.936,0.943-1.948c-1.122-3.997-5.176-1.957-6.13-6.322
			C56.061,23.205,56.296,19.56,57.907,17.142z"/>
		<path fill="#FFFFFF" stroke="#000000" stroke-width="1.274" d="M55.318,15.188c0.547,2.301-0.978,4.468-1.177,6.827
			c-1.176,0-2.35,0-3.525,0c-1.581,5.984-3.165,11.955-4.709,18.016c-2.517,0-5.025,0-7.544,0c1.377-6.239,3.21-11.562,4.481-18.016
			c-0.716-1.132-2.434-0.175-3.537-0.491c-0.859-0.675,1-3.642,0.944-5.849C45.163,15.344,51.546,16.223,55.318,15.188z"/>
		<path fill="#FFFFFF" stroke="#000000" stroke-width="1.274" d="M25.289,15.674c4.636,0,9.271,0,13.916,0
			c-0.199,2.343-0.983,3.513-1.182,5.849c-2.028,1.113-7.135-2.374-8.023,2.438c1.738,1.131,4.486,0.159,6.609,0.487
			c-0.575,2.048-0.944,4.567-1.653,6.337c-2.039,1.957-6.841-1.791-7.783,2.424c1.695,2.184,5.311,0.395,7.783,0.977
			c-0.387,2.125-1,3.779-1.416,5.845c-4.793,0-9.589,0-14.377,0C20.982,31.443,23.346,24,25.289,15.674z"/>
		<path fill="#FFFFFF" stroke="#000000" stroke-width="1.274" d="M17.438,10.868c2.902-0.274,5.155,0.505,7.068,0
			c-0.585,4.383-2.648,10.452-4.242,16.572c-1.441,5.549-2.771,13.629-5.183,16.549c-3.315,4.021-12.842,3.021-13.664-3.406
			c-0.772-6.116,1.405-9.362,2.356-13.143c1-0.408,5.042,0.454,6.362-0.487c0.177,2.908-1.989,4.906-1.885,9.247
			c3.155,3.159,4.108-5.68,5.183-9.734c1.348-5.084,2.563-10.372,3.768-14.139C17.137,11.545,17.428,11.487,17.438,10.868z"/>
	</g>
	<g>
		<path fill="#FFFFFF" stroke="#000000" stroke-width="0.8192" d="M73.985,40.827c1.303,0.218,2.44,0.364,3.188,0.364
			c1.105,0,1.592-0.402,1.884-1.576c0.325-1.283,0.553-3.597,0.553-5.574c0-1.062-0.031-2.125-0.098-3.002
			c-1.168,1.353-2.922,3.037-5.037,4.763l-0.651,0.696l-0.813-0.992l0.813-0.731c1.789-2.271,3.478-5.497,5.07-9.644
			c-0.096-0.843-0.292-2.2-0.519-3.485c-1.398,1.321-2.665,2.347-3.964,3.192l-0.847,0.732l-0.748-1.099l0.976-0.696
			c1.399-1.579,2.764-3.486,3.837-5.43c-0.489-1.871-1.106-3.704-1.95-5.611l-0.65-0.953l1.201-0.734l0.489,0.917
			c1.04,1.54,1.56,2.42,2.274,3.74c0.519-1.137,0.91-2.054,1.397-3.338l0.421-1.467l4.07,2.898l-0.911,1.174
			c-1.398,1.979-2.246,3.044-3.319,4.254c1.986,4.989,2.831,9.354,2.831,14.777c0,3.265-0.293,5.317-1.107,7.447
			c-0.682,1.797-1.463,2.566-2.569,2.566c-0.911,0-2.34-0.439-4.485-1.357l-1.235-0.403L73.985,40.827z M95.331,26.746h3.549
			c0.75,0,1.141-0.038,1.954-0.147v1.76c-0.813-0.109-1.204-0.146-1.954-0.146h-3.549v12.688h5.307c0.75,0,1.141-0.038,1.955-0.147
			v1.758c-0.814-0.108-1.205-0.146-1.955-0.146H85.76c-0.814,0-1.011,0.037-1.954,0.146v-1.758c0.716,0.109,1.336,0.147,1.954,0.147
			h4.98V28.213h-3.156c-0.815,0-1.01,0.036-1.954,0.146v-1.76c0.716,0.11,1.333,0.147,1.954,0.147h3.156V15.339h-3.613
			c-0.813,0-1.011,0.036-1.952,0.146v-1.76c0.714,0.109,1.334,0.146,1.952,0.146h12.729c0.749,0,1.14-0.036,1.954-0.146v1.76
			c-0.814-0.11-1.205-0.146-1.954-0.146h-4.526V26.746z"/>
		<path fill="#FFFFFF" stroke="#000000" stroke-width="0.862" d="M113.089,38.07c0.926,0,1.726-0.238,2.784-0.811
			c2.438-1.353,3.714-4.011,3.714-7.835c0-2-0.366-3.786-1.081-5.117c-0.885-1.664-2.05-2.495-3.907-2.804
			c-0.143,9.284-1.927,15.711-6.11,15.711c-2.419,0-4.32-2.755-4.32-6.269c0-6.14,3.908-10.274,9.717-10.274
			c5.357,0,8.769,3.445,8.769,8.873c0,5.414-2.852,8.453-8.703,9.285c-0.323,0.048-0.582,0.119-0.797,0.19l-0.195-0.949H113.089z
			 M111.771,21.765c-2.16,0.879-3.282,1.948-4.104,3.851c-0.604,1.404-0.907,3.212-0.907,5.355c0,2.989,0.779,5.293,1.795,5.293
			c2.192,0,3.052-6.402,3.195-13.809L111.771,21.765z"/>
	</g>
</g>
</svg>
